<svg id="amfe-logo" xmlns="http://www.w3.org/2000/svg" xmlns:xlink="http://www.w3.org/1999/xlink" viewBox="0 0 170 170"><defs><style>#amfe-logo{width:24px;height:24px}.a{fill:url(#a);}.b{fill:#fff;}</style><linearGradient id="a" x1="21.83" y1="28.12" x2="148.17" y2="141.88" gradientUnits="userSpaceOnUse"><stop offset="0" stop-color="#3023ae"/><stop offset="0.14" stop-color="#4225a6"/><stop offset="0.41" stop-color="#722b92"/><stop offset="0.8" stop-color="#be3373"/><stop offset="1" stop-color="#e93861"/></linearGradient></defs><title>Addon Master Pack Elementor</title><circle class="a" cx="85" cy="85" r="85"/><path class="b" d="M1174.13-257a26.9,26.9,0,0,0-2.58-8.31c-2-3.75-4.23-7.42-6.36-11.12q-4.25-7.37-8.51-14.73c-3.54-6.15-7.15-12.25-10.59-18.45a28.86,28.86,0,0,0-7.11-8.81,23,23,0,0,0-10.1-4.39,22.52,22.52,0,0,0-10.18.38,21.78,21.78,0,0,0-13.33,10.22c-3.93,6.49-7.68,13.09-11.45,19.68-2.85,5-5.74,9.91-8.52,14.92-2.48,4.47-5.39,8.71-7.63,13.32a18.38,18.38,0,0,0-2.07,7.65c-.92,8.36,1.55,15.53,7.89,21.09,4.35,3.82,9.74,5.31,15.39,5.35,9.25.07,16.1-4.48,20.79-12.15,6.89-11.26,13.49-22.7,20.22-34.07l4.16-7c2.25,3.93,4.4,7.62,6.48,11.35,2.6,4.69,5.54,9.19,7.95,14a9.44,9.44,0,0,1-2.27,12c-3.63,3.17-8.3,3.35-12.38.47-1.69-1.19-3.32-2.46-5-3.64a7.32,7.32,0,0,0-10.82,3.33c-1.18,3-.28,6.08,2.68,8.78a42.8,42.8,0,0,0,6.12,4.41,24.11,24.11,0,0,0,33.91-7.81A23.49,23.49,0,0,0,1174.13-257Zm-50-21.61c-5.67,9.57-11.27,19.18-17,28.73-2.89,4.83-7.43,6.34-12.55,4a7.93,7.93,0,0,1-4.39-6.39,8.52,8.52,0,0,1,.36-4.44h0l1.27-2.58c1.94-2.68,3.19-5.76,5-8.54,1.46-2.28,2.84-4.61,4.1-7,4-7.53,8.55-14.67,12.57-22.16a74.9,74.9,0,0,1,5.13-8.34c3.73-5.13,10.19-4.14,13.09.3a59.35,59.35,0,0,1,3.95,7.11Q1129.84-288.3,1124.1-278.64Z" transform="translate(-1040 361)"/></svg>