<svg xmlns="http://www.w3.org/2000/svg" xmlns:xlink="http://www.w3.org/1999/xlink" width="25" height="25" viewBox="0 0 25 25"><defs><style>.a{fill:url(#a);}.b{fill:#fff;}</style><linearGradient id="a" x1="3.21" y1="4.14" x2="21.79" y2="20.86" gradientUnits="userSpaceOnUse"><stop offset="0" stop-color="#3023ae"/><stop offset="0.14" stop-color="#4225a6"/><stop offset="0.41" stop-color="#722b92"/><stop offset="0.8" stop-color="#be3373"/><stop offset="1" stop-color="#e93861"/></linearGradient></defs><title>amfe</title><circle class="a" cx="12.5" cy="12.5" r="12.5"/><path class="b" d="M708.79,1086a3.69,3.69,0,0,0-.38-1.22c-.3-.55-.62-1.09-.93-1.63l-1.25-2.17c-.53-.9-1.06-1.8-1.56-2.71a4.3,4.3,0,0,0-1-1.3,3.4,3.4,0,0,0-1.48-.64,3.3,3.3,0,0,0-1.5.05,3.21,3.21,0,0,0-2,1.51c-.58.95-1.13,1.92-1.68,2.89-.42.73-.85,1.46-1.26,2.19s-.79,1.28-1.12,2a2.64,2.64,0,0,0-.3,1.13,3.37,3.37,0,0,0,3.42,3.89,3.42,3.42,0,0,0,3.06-1.79c1-1.66,2-3.34,3-5l.61-1c.33.58.65,1.12,1,1.67s.81,1.35,1.16,2.06a1.45,1.45,0,0,1-2.15,1.83l-.74-.53a1.08,1.08,0,0,0-1.59.49,1.13,1.13,0,0,0,.4,1.29,5.9,5.9,0,0,0,.9.65,3.54,3.54,0,0,0,5-1.15A3.43,3.43,0,0,0,708.79,1086Zm-7.36-3.17c-.83,1.4-1.65,2.82-2.49,4.22a1.35,1.35,0,0,1-1.85.59,1.14,1.14,0,0,1-.64-.94,1.11,1.11,0,0,1,0-.65h0l.19-.38c.28-.39.47-.85.73-1.26a9.55,9.55,0,0,0,.6-1c.58-1.1,1.26-2.15,1.85-3.26a11.82,11.82,0,0,1,.76-1.22,1.13,1.13,0,0,1,1.92,0,9,9,0,0,1,.58,1Z" transform="translate(-689.07 -1070.73)"/></svg>